+15_ID_stride5.mot
nRows=10
nColumns=38

name +15_ID_stride5.mot
datacolumns 38
datarows 10
range 2.3850000000 2.4300000000
endheader
time	pelvis_tilt_moment	pelvis_list_moment	pelvis_rotation_moment	pelvis_tx_force	pelvis_ty_force	pelvis_tz_force	hip_flexion_r_moment	hip_adduction_r_moment	hip_rotation_r_moment	knee_angle_r_moment	ankle_angle_r_moment	subtalar_angle_r_moment	mtp_angle_r_moment	hip_flexion_l_moment	hip_adduction_l_moment	hip_rotation_l_moment	knee_angle_l_moment	ankle_angle_l_moment	subtalar_angle_l_moment	mtp_angle_l_moment	lumbar_extension_moment	lumbar_bending_moment	lumbar_rotation_moment	arm_flex_r_moment	arm_add_r_moment	arm_rot_r_moment	elbow_flex_r_moment	pro_sup_r_moment	wrist_flex_r_moment	wrist_dev_r_moment	arm_flex_l_moment	arm_add_l_moment	arm_rot_l_moment	elbow_flex_l_moment	pro_sup_l_moment	wrist_flex_l_moment	wrist_dev_l_moment
        2.3850000000	       64.5621003901	       66.5898722080	       -0.5518949081	       37.4473753471	      519.3394971021	      227.1825997284	      -47.2564313110	      -50.9952284506	       18.4272924324	       -2.8963510912	        3.3081966659	       12.3035515152	        0.2600494504	       74.2672916451	      -31.6188664196	       12.3341699044	       32.4278211331	        4.5276731825	       -1.2354480875	        0.2089739771	       75.7675885530	      -40.2313147805	       -2.9582054206	       -3.6164586224	        0.4271500140	        0.4069235664	        3.2487781802	       -0.0404879582	        0.1124869654	       -0.2500973313	       -4.5993389971	        1.6724599821	        1.4477125897	        2.6057490145	       -0.0263363983	        0.1951985238	       -0.1934196288	
        2.3900000000	       80.6099673258	       94.2783563249	       10.3118173487	       56.0330535378	      444.2698294821	      134.6240757199	      -38.6631939768	      -62.3546795336	       28.6760448031	        7.0271422293	       -9.7063826972	       17.8479198452	        0.2957446818	       74.5579109122	      -21.0139460618	       11.4849116781	       31.8135157939	        4.7101452379	       -1.1961673994	        0.2345030320	       79.0403270882	      -40.4310328913	       -4.2576147536	       -3.6191404242	        0.6037101291	        0.3901723477	        3.4940553472	       -0.0487090110	        0.1120126980	       -0.2772775332	       -4.2049173978	        1.6235621713	        1.4675695998	        2.9494257278	       -0.0306179138	        0.2049541883	       -0.2245748661	
        2.3950000000	       83.5749653054	      102.0841865776	       20.6116940032	       77.3892994800	      272.8756236928	       34.0547181857	      -43.4453986436	      -66.6955570480	       37.6244652548	        9.0220981629	      -28.1646413093	       23.9275643212	        0.3068775077	       77.2942444497	      -12.3097772553	       10.4227663990	       31.4948488187	        4.7874174319	       -1.1513762631	        0.2481298388	       77.1536879464	      -35.1439188159	       -4.4402059481	       -2.8884232904	        0.6683116659	        0.3437544633	        3.5426077961	       -0.0519320915	        0.1061518983	       -0.2862847846	       -3.2254041481	        1.5566085938	        1.3315928515	        3.0681225534	       -0.0341118757	        0.1983962356	       -0.2386314961	
        2.4000000000	       61.0509718806	       77.7685653897	       28.6194464254	       97.9708953940	       61.0760167852	      -50.6999282239	      -76.2951961596	      -59.8849791651	       42.8949913261	        0.4028524913	      -48.8627986637	       29.9440651234	        0.2891596158	       79.4070205363	       -5.8064041955	        9.2971863846	       31.2165294121	        4.7316668243	       -1.0957357429	        0.2509927231	       66.4091786389	      -24.4784782354	       -2.9163355974	       -1.7358217744	        0.5602918733	        0.2570949411	        3.3184218920	       -0.0514571834	        0.0952064030	       -0.2747841202	       -2.0660387228	        1.5474423298	        1.1066995183	        2.9668383572	       -0.0358977597	        0.1700547798	       -0.2379851484	
        2.4050000000	       25.0970344760	       37.9250183026	       30.3992100736	      107.8112280566	     -133.4931978383	      -89.3935429666	     -117.4501788797	      -46.1594740099	       41.9043884775	       -9.5543268366	      -67.3032547617	       34.6119164909	        0.2553985827	       78.9116483878	       -2.0342256109	        8.3028540740	       30.5889481753	        4.5783575763	       -1.0299204272	        0.2466068272	       53.0952338173	      -11.8162883280	       -0.5958182368	       -0.5542133365	        0.3718445145	        0.1955519201	        3.0125129373	       -0.0493724645	        0.0877420384	       -0.2545884056	       -1.0625992800	        1.5776544680	        0.8664847688	        2.7824436133	       -0.0374738102	        0.1359323804	       -0.2309871078	
        2.4100000000	      -20.3514044475	       -9.4207829488	       30.0493475783	      108.5371641979	     -275.7322517998	      -96.4460232351	     -153.3978412103	      -26.0704211118	       35.5757189120	      -12.7006366450	      -80.8918454127	       37.5416087343	        0.2040009696	       75.5572093305	       -0.7084030347	        7.4942120066	       29.3207891985	        4.2806368697	       -0.9538840537	        0.2309942165	       39.6379431804	        0.7027828991	        2.4498789186	        0.5175339062	        0.2508682933	        0.1915946005	        2.7861778181	       -0.0451835587	        0.0874520459	       -0.2334498099	       -0.3430332695	        1.6098771280	        0.6172418370	        2.6530690938	       -0.0403066327	        0.1001168182	       -0.2244503467	
        2.4150000000	      -58.6218513028	      -39.8313434905	       27.2802183681	       95.8549014284	     -334.0047702786	      -85.6943906901	     -168.0281054281	       -9.3887094435	       27.1718325473	       -4.2691400813	      -88.1937599830	       38.9222207033	        0.1495959429	       69.8453451718	       -0.5954883502	        6.8229258538	       27.4742945305	        3.9367924791	       -0.8697807300	        0.2119896308	       29.2913957001	        9.4239722288	        5.6850941165	        1.4187212972	        0.2550947171	        0.3184953960	        2.7386916679	       -0.0420319889	        0.1037544437	       -0.2258346456	        0.0924537808	        1.5775154974	        0.3479312181	        2.6501022584	       -0.0487236095	        0.0669233119	       -0.2276700880	
        2.4200000000	      -80.0384424317	      -48.5767494884	       25.8573756403	       72.8303013845	     -322.1953923709	      -77.6460229798	     -157.9766845265	       -0.7924821786	       21.7042497618	       21.9176852217	      -90.6633428167	       39.4408861736	        0.0997661698	       64.0680810729	       -1.4136368875	        6.1047826906	       25.3438572820	        3.6053296018	       -0.7746226557	        0.1933515230	       23.2578953156	       12.9710004801	        8.8402343996	        2.2364692205	        0.6518638830	        0.6177252111	        3.0812611333	       -0.0407666253	        0.1416040022	       -0.2437294094	        0.3638082271	        1.3495081777	        0.0273193883	        3.0009590980	       -0.0657364128	        0.0369597981	       -0.2618972473	
        2.4250000000	      -77.4269726974	      -35.9211539536	       27.6078499741	       45.7454432318	     -235.7697170281	      -88.8972193445	     -127.7233528234	       -3.3037742733	       22.6318149708	       56.1576331123	      -91.5099667072	       40.2611050330	        0.0601928383	       59.9092206008	       -1.6252427308	        4.9860594420	       23.2706486646	        3.3325171331	       -0.6586195942	        0.1780003937	       22.1032772107	        9.6454733256	       11.7176500804	        3.1241154498	        1.3868014273	        1.0558510934	        3.7989199646	       -0.0426763878	        0.1974574459	       -0.2918328704	        0.6592428472	        0.9465007249	       -0.3598736901	        3.6606081812	       -0.0916405298	        0.0098382632	       -0.3246740196	
        2.4300000000	      -61.4922113662	      -19.7971515556	       32.0747677830	       20.5676293235	     -109.5536850884	     -114.3257366132	      -96.2737721418	      -11.5338708293	       27.7171815104	       86.1785235306	      -95.5397990579	       42.4733729613	        0.0347539747	       58.5577922738	       -0.6076307562	        3.2122340237	       21.4343917538	        3.1289931883	       -0.5109584610	        0.1672378504	       24.0268069948	        1.6655145782	       14.1613622269	        4.1557583104	        2.3697058195	        1.5704493552	        4.8075106264	       -0.0472347236	        0.2642352325	       -0.3643655541	        1.0917579357	        0.4284190425	       -0.7878667309	        4.5584790732	       -0.1240095450	       -0.0138995542	       -0.4106130896	
